<svg xmlns="http://www.w3.org/2000/svg" width="44.662" height="31" viewBox="0 0 44.662 31">
  <path id="Path_37054" data-name="Path 37054" d="M16.1,25.011A5.17,5.17,0,0,1,21.185,19.6a4.971,4.971,0,0,1,3.024.9.515.515,0,0,0,.643.015l4.174-2.4h0l2.94-1.685.835-.479,1.123-.644h0l6.711-3.844A1.956,1.956,0,0,1,43.6,12.68a1.931,1.931,0,0,1-.963,2.141c-1.787,1.035-3.581,2.057-5.4,3.1L26.777,23.908a.474.474,0,0,0-.31.522,5.129,5.129,0,0,1-4.252,5.493,5.78,5.78,0,0,1-.93.076A5.171,5.171,0,0,1,16.1,25.011Zm-6.267-5.92L7.594,16.881a1.028,1.028,0,0,1,.037-1.505,19.987,19.987,0,0,1,23.931-1.837c-1.616.926-3.325,1.905-5.378,3.084a14.672,14.672,0,0,0-14.916,2.521,1.063,1.063,0,0,1-1.435-.052Zm-7.3-7.4L.308,9.486A1.034,1.034,0,0,1,.331,7.991a30.239,30.239,0,0,1,40.961,0,1.03,1.03,0,0,1,.291.469,4.918,4.918,0,0,0-2.3.653l-1.557.891-.392.224-.862.494a24.959,24.959,0,0,0-32.483,1A1.06,1.06,0,0,1,3.274,12,1.043,1.043,0,0,1,2.535,11.7Z" transform="translate(0.5 0.5)" fill="#fff" stroke="rgba(0,0,0,0)" stroke-width="1"/>
</svg>
